# xmcd
#
# Track frame offsets:
#	150
#	2467
#	5345
#	8297
#	8690
#	12012
#	14652
#	15192
#	29795
#	41972
#	45332
#	54097
#	54615
#	59655
#	71287
#	87362
#	100317
#	103585
#	106865
#	107937
#	117380
#	120055
#	126795
#	131815
#	136457
#	138370
#	145967
#	167550
#
# Disc length: 2329 seconds
#
# Revision: 1
# Processed by: cddbd v1.5.1PL0 Copyright (c) Steve Scherf et al.
# Submitted via: CDex 1.50Beta5
#
DISCID=6309171c
DTITLE=キバンオンゲン - カプコン・サウンドシリーズ サイバーボッツ/アーケード ゲームトラック Disc 1
DYEAR=1995
DGENRE=Game
TTITLE0=Opening-Title
TTITLE1=Robot Demo1
TTITLE2=Robot Demo2
TTITLE3=Ranking Display
TTITLE4=Play Select
TTITLE5=Story Demo1
TTITLE6=VS.
TTITLE7=MEGALOPOLIS
TTITLE8=MACHINE ARENA
TTITLE9=Story Demo2
TTITLE10=GAITS Theme
TTITLE11=Winning Theme1
TTITLE12=Story Demo3
TTITLE13=POWER STATION
TTITLE14=COLONIAL SATELLITE
TTITLE15=VOLCANO
TTITLE16=Continue
TTITLE17=Story Demo4
TTITLE18=Story Demo5
TTITLE19=SUPER8Theme
TTITLE20=Story Demo6
TTITLE21=MARY Ending
TTITLE22=BAO and MAO Ending1
TTITLE23=BAO and MAO Ending2
TTITLE24=GAWAINE Ending1
TTITLE25=GAWAINE Ending2
TTITLE26=SE Collection1
TTITLE27=SE Collection2
EXTD=
EXTT0=
EXTT1=
EXTT2=
EXTT3=
EXTT4=
EXTT5=
EXTT6=
EXTT7=
EXTT8=
EXTT9=
EXTT10=
EXTT11=
EXTT12=
EXTT13=
EXTT14=
EXTT15=
EXTT16=
EXTT17=
EXTT18=
EXTT19=
EXTT20=
EXTT21=
EXTT22=
EXTT23=
EXTT24=
EXTT25=
EXTT26=
EXTT27=
PLAYORDER=
